<?xml version="1.0" encoding="UTF-8"?>
<svg id="Lager_1" xmlns="http://www.w3.org/2000/svg" viewBox="0 0 408.64 408.52">
  <defs>
    <style>
      .cls-1 {
        fill: #fff;
      }
    </style>
  </defs>
  <path d="M192.42,0c7.98,0,15.97,0,23.95,0,6.84.86,13.71,1.49,20.5,2.63,42.55,7.18,79.62,25.59,110.15,56.04,45.94,45.82,66.46,101.45,60.64,166.14-3.6,39.95-18.35,75.95-43.93,106.84-46.56,56.23-106.63,81.99-179.55,76.04-33.73-2.75-64.83-14.27-92.78-33.39C43.48,341.48,13.7,296.55,3.15,239.22c-1.39-7.55-2.12-15.22-3.15-22.84,0-7.98,0-15.97,0-23.95.32-2.75.67-5.5.97-8.25,3.6-33.66,14.42-64.81,33.54-92.76C67.33,43.47,112.26,13.7,169.58,3.15,177.14,1.76,184.81,1.03,192.42,0ZM306.21,271.32c-22.41-22.41-44.85-44.84-67.54-67.52,22.27-22.23,44.66-44.58,66.79-66.67-11.28-11.28-22.44-22.43-33.94-33.92-22.11,22.13-44.52,44.58-67.29,67.38-22.65-22.66-45.08-45.09-67.08-67.09-11.36,11.31-22.55,22.44-34.36,34.2,22.21,22.2,44.65,44.64,67.31,67.29-22.25,22.25-44.62,44.61-66.74,66.73,11.26,11.25,22.42,22.4,33.89,33.87,22.12-22.12,44.55-44.55,67.33-67.34,22.64,22.64,45.06,45.07,67.3,67.31,11.28-11.24,22.37-22.3,34.33-34.23Z"/>
  <path class="cls-1" d="M306.21,271.32c-11.96,11.92-23.06,22.98-34.33,34.23-22.23-22.23-44.66-44.66-67.3-67.31-22.78,22.78-45.21,45.21-67.33,67.34-11.47-11.47-22.63-22.62-33.89-33.87,22.12-22.11,44.48-44.48,66.74-66.73-22.66-22.65-45.1-45.09-67.31-67.29,11.81-11.76,23-22.89,34.36-34.2,22,22,44.42,44.43,67.08,67.09,22.77-22.8,45.19-45.24,67.29-67.38,11.49,11.49,22.65,22.64,33.94,33.92-22.13,22.09-44.52,44.44-66.79,66.67,22.69,22.68,45.13,45.11,67.54,67.52Z"/>
</svg>