<?xml version="1.0" encoding="UTF-8"?>
<svg id="Lager_1" xmlns="http://www.w3.org/2000/svg" viewBox="0 0 190.43 190.43">
  <defs>
    <style>
      .cls-1 {
        fill: #fff;
      }

      .cls-2 {
        fill: #1d1d1b;
        stroke: #1d1d1b;
        stroke-miterlimit: 10;
      }
    </style>
  </defs>
  <circle class="cls-2" cx="95.21" cy="95.21" r="94.71"/>
  <g>
    <path class="cls-1" d="M21.48,96.62c0-5.94.89-11.33,2.66-16.18,1.77-4.85,4.33-9,7.66-12.44,3.33-3.44,7.35-6.1,12.05-7.98,4.71-1.88,10.03-2.82,15.97-2.82,6.8,0,12.76,1.21,17.87,3.64,5.1,2.43,9.39,5.81,12.87,10.15l-11.08,7.6c-2.32-2.82-5.09-5.01-8.31-6.57-3.22-1.56-7.01-2.34-11.35-2.34-3.91,0-7.4.63-10.48,1.9-3.08,1.27-5.67,3.06-7.77,5.38-2.1,2.32-3.71,5.14-4.83,8.47-1.12,3.33-1.68,7.06-1.68,11.19s.56,7.86,1.68,11.19c1.12,3.33,2.73,6.15,4.83,8.47,2.1,2.32,4.69,4.11,7.77,5.38,3.08,1.27,6.57,1.9,10.48,1.9,4.34,0,8.13-.78,11.35-2.34,3.22-1.56,5.99-3.75,8.31-6.57l11.08,7.6c-3.48,4.34-7.77,7.73-12.87,10.15-5.1,2.43-11.06,3.64-17.87,3.64-5.94,0-11.26-.94-15.97-2.82-4.71-1.88-8.72-4.54-12.05-7.98-3.33-3.44-5.88-7.58-7.66-12.44-1.78-4.85-2.66-10.24-2.66-16.18Z"/>
    <path class="cls-1" d="M123.95,134.63l-28.74-73.32h13.47l23.4,60.04,23.35-60.04h13.52l-28.74,73.32h-16.26Z"/>
  </g>
</svg>