<svg width="26" height="26" viewBox="0 0 26 26" fill="none" xmlns="http://www.w3.org/2000/svg">
<path d="M8.31957 1.56006C4.59117 1.56006 1.55957 4.59166 1.55957 8.32006V17.6801C1.55957 21.4085 4.59117 24.4401 8.31957 24.4401H17.6796C21.408 24.4401 24.4396 21.4085 24.4396 17.6801V8.32006C24.4396 4.59166 21.408 1.56006 17.6796 1.56006H8.31957ZM19.2396 5.72006C19.8116 5.72006 20.2796 6.18806 20.2796 6.76006C20.2796 7.33206 19.8116 7.80006 19.2396 7.80006C18.6676 7.80006 18.1996 7.33206 18.1996 6.76006C18.1996 6.18806 18.6676 5.72006 19.2396 5.72006ZM12.9996 7.28006C16.156 7.28006 18.7196 9.84366 18.7196 13.0001C18.7196 16.1565 16.156 18.7201 12.9996 18.7201C9.84317 18.7201 7.27957 16.1565 7.27957 13.0001C7.27957 9.84366 9.84317 7.28006 12.9996 7.28006ZM12.9996 8.32006C10.4204 8.32006 8.31957 10.4209 8.31957 13.0001C8.31957 15.5793 10.4204 17.6801 12.9996 17.6801C15.5788 17.6801 17.6796 15.5793 17.6796 13.0001C17.6796 10.4209 15.5788 8.32006 12.9996 8.32006Z" fill="black"/>
</svg>
