<svg width="27" height="21" viewBox="0 0 27 21" fill="none" xmlns="http://www.w3.org/2000/svg">
<path d="M3.16634 20.8332C2.45592 20.8332 1.84238 20.5856 1.32572 20.0905C0.830577 19.5738 0.583008 18.9603 0.583008 18.2498V2.74984C0.583008 2.03942 0.830577 1.43664 1.32572 0.941503C1.84238 0.424837 2.45592 0.166504 3.16634 0.166504H23.833C24.5434 0.166504 25.1462 0.424837 25.6413 0.941503C26.158 1.43664 26.4163 2.03942 26.4163 2.74984V18.2498C26.4163 18.9603 26.158 19.5738 25.6413 20.0905C25.1462 20.5856 24.5434 20.8332 23.833 20.8332H3.16634ZM13.4997 11.7915L23.833 5.33317V2.74984L13.4997 9.20817L3.16634 2.74984V5.33317L13.4997 11.7915Z" fill="#1D1B20"/>
</svg>
