<?xml version="1.0" encoding="UTF-8"?>
<svg id="Lager_1" xmlns="http://www.w3.org/2000/svg" viewBox="0 0 324.92 325.6">
  <defs>
    <style>
      .cls-1 {
        fill: #fff;
      }
    </style>
  </defs>
  <path class="cls-1" d="M324.92,66.78c-6.22,14.44-8.37,17.32-21.48,28.89-24.54-24.55-49.06-49.08-73.84-73.85,8.19-7.34,14.84-17.99,27.63-20.83,11-2.45,21.1-.43,29.31,7.18,10.48,9.71,20.37,20.07,30.41,30.26,4.27,4.33,6.23,9.96,7.98,15.64v12.72Z"/>
  <path class="cls-1" d="M0,325.6c2.96-9.14,5.87-18.31,8.89-27.43,7.82-23.59,15.69-47.15,23.54-70.73.32-.96.71-1.91.97-2.61,22.43,22.43,44.78,44.79,67.17,67.18-9.18,3.06-18.69,6.25-28.2,9.41-23.06,7.67-46.13,15.33-69.19,23.02-.88.29-1.7.77-2.55,1.16h-.64Z"/>
  <path class="cls-1" d="M291.9,106.39c-59.17,59.18-118.55,118.57-177.68,177.7-24.27-24.27-48.74-48.75-73.03-73.04,59.2-59.21,118.58-118.6,177.68-177.7,24.21,24.21,48.71,48.73,73.03,73.05Z"/>
</svg>