<svg width="21" height="21" viewBox="0 0 21 21" fill="none" xmlns="http://www.w3.org/2000/svg">
<g clip-path="url(#clip0_89_71)">
<path d="M9.05644 11.9197L11.5634 14.4267C11.788 14.6512 12.133 14.7019 12.4126 14.5519L15.4171 12.939C15.6393 12.8196 15.9078 12.8254 16.1247 12.9542L20.5083 15.5555C20.8211 15.7411 20.947 16.1292 20.8006 16.4621C20.426 17.3145 19.7442 18.8769 19.4733 19.5677C19.4164 19.7132 19.3316 19.8464 19.2135 19.9485C16.2921 22.4809 10.4796 19.3953 6.03057 14.9463C1.58084 10.497 -1.50473 4.68453 1.02762 1.76308C1.12997 1.64506 1.2632 1.56023 1.40842 1.5033C2.09903 1.23245 3.66164 0.550607 4.51406 0.176032C4.84691 0.0296597 5.23508 0.155517 5.42064 0.468316L8.02192 4.85188C8.15055 5.06879 8.15631 5.33733 8.03714 5.55954L6.42427 8.56352C6.27421 8.84313 6.32492 9.1882 6.54944 9.41271L9.05644 11.9197Z" fill="black"/>
</g>
<defs>
<clipPath id="clip0_89_71">
<rect width="21" height="21" fill="white"/>
</clipPath>
</defs>
</svg>
