<?xml version="1.0" encoding="UTF-8"?>
<svg id="Lager_1" xmlns="http://www.w3.org/2000/svg" viewBox="0 0 315.2 310.64">
  <defs>
    <style>
      .cls-1 {
        fill: #fff;
      }
    </style>
  </defs>
  <g>
    <path class="cls-1" d="M17.8,303.26c.91,0,1.76-.05,2.57-.15s1.52-.33,2.13-.7,1.1-.9,1.46-1.62.55-1.69.55-2.93v-14.54h10.68v15.69c.01,1.77-.2,3.29-.65,4.56s-1.07,2.33-1.88,3.2-1.76,1.54-2.86,2.05-2.31.89-3.61,1.17-2.68.45-4.14.54-2.95.12-4.47.12-2.99-.04-4.45-.12-2.84-.26-4.14-.54-2.5-.66-3.61-1.17-2.05-1.19-2.85-2.05-1.42-1.93-1.88-3.2S-.01,300.78,0,299.01h11.54c0,.99.18,1.77.54,2.33s.83.99,1.41,1.27,1.25.47,2,.54,1.52.11,2.32.11Z"/>
    <path class="cls-1" d="M45.2,307.85c-4.2-2.47-6.3-6.25-6.3-11.33,0-1.73.23-3.28.68-4.62s1.08-2.53,1.88-3.54,1.74-1.88,2.84-2.59,2.29-1.3,3.58-1.76,2.65-.81,4.09-1.04,2.89-.39,4.37-.45c1.86-.08,3.43-.11,4.69-.11,1.33,0,2.68.02,4.05.07s2.73.16,4.09.34,2.68.47,3.97.84,2.54.89,3.72,1.54c4.2,2.47,6.3,6.25,6.3,11.33,0,1.72-.23,3.26-.68,4.61s-1.08,2.54-1.88,3.55-1.74,1.88-2.84,2.59-2.29,1.3-3.58,1.76-2.65.81-4.09,1.04-2.89.39-4.37.45c-1.85.08-3.41.11-4.69.11s-2.68-.02-4.05-.07-2.73-.16-4.09-.34-2.68-.47-3.97-.84-2.54-.89-3.72-1.54ZM50.3,296.52c0,.43.04.88.11,1.33s.18.89.34,1.3.37.8.63,1.17.58.68.95.95c.52.34,1.15.62,1.88.82s1.49.36,2.29.46,1.59.17,2.38.2,1.51.05,2.14.05c4.21,0,7.11-.51,8.71-1.53.75-.56,1.28-1.27,1.57-2.11s.44-1.73.44-2.63c0-.36-.03-.75-.09-1.18s-.16-.86-.32-1.29-.36-.85-.61-1.25-.59-.74-.99-1.02c-.51-.34-1.13-.62-1.87-.82s-1.5-.36-2.3-.47-1.59-.18-2.39-.21-1.51-.05-2.15-.05c-4.2,0-7.09.52-8.69,1.55-.38.27-.7.58-.96.94s-.46.75-.62,1.17-.27.85-.34,1.3-.11.89-.11,1.34Z"/>
    <path class="cls-1" d="M87.37,305.82c-.37-.37-.69-.73-.96-1.08s-.49-.72-.67-1.1-.31-.79-.39-1.23-.12-.92-.12-1.44h12.61c0,.99.69,1.69,2.07,2.08s3.39.58,6.05.58h.23c1.39,0,2.55-.05,3.48-.15s1.68-.24,2.24-.4.96-.36,1.2-.58.36-.45.37-.68c0-.4-.15-.71-.46-.94-.32-.24-.99-.45-2.03-.61-.54-.09-1.2-.18-1.99-.26s-1.73-.18-2.81-.28c-.43-.04-.86-.08-1.27-.11s-.83-.08-1.23-.11c-2.82-.24-5.28-.49-7.39-.74s-3.79-.56-5.07-.95c-1.85-.64-3.18-1.58-4-2.81-.83-1.26-1.16-2.66-.99-4.19.26-1.8,1.04-3.27,2.35-4.42,1.33-1.16,2.84-2,4.53-2.51,1.94-.61,3.94-1.01,6-1.2s4.1-.28,6.13-.28c.87,0,1.82.03,2.85.08s2.09.14,3.18.28,2.17.32,3.27.55,2.15.53,3.15.9,1.94.82,2.8,1.34,1.61,1.14,2.24,1.84c1.21,1.36,1.87,2.59,1.97,3.67h-12.61c0-.26-.15-.47-.44-.65s-.67-.33-1.12-.45-.95-.21-1.5-.28-1.07-.11-1.58-.15-.96-.06-1.36-.07-.69,0-.85,0c-1.91,0-3.41.11-4.48.33s-1.61.59-1.61,1.1c0,.27.14.47.41.6s.68.23,1.22.28c1.24.13,2.49.25,3.75.37s2.55.23,3.87.33c1.85.14,3.6.3,5.24.47s3.2.35,4.67.53c2.68.33,4.69,1.08,6.04,2.25s1.99,2.88,1.92,5.14c-.14,2.25-.92,4.03-2.33,5.36-1.44,1.33-3.06,2.28-4.84,2.87-2.02.68-4.2,1.11-6.56,1.3-1.2.09-2.34.16-3.43.2s-2.14.07-3.15.07c-1.53,0-3.14-.04-4.84-.12s-3.37-.29-5.03-.62-3.24-.82-4.75-1.45-2.83-1.51-3.96-2.62Z"/>
    <path class="cls-1" d="M167.14,283.32v7.73h-26.62v2.49h25.16v5.82h-25.16v2.62h26.92v7.75h-37.62v-26.41h37.31Z"/>
    <path class="cls-1" d="M209.83,283.32v8.07h-26.92v4.61h25.16v7.75h-25.16v5.97h-10.7v-26.41h37.62Z"/>
    <path class="cls-1" d="M213.54,283.32h10.7v26.41h-10.7v-26.41Z"/>
    <path class="cls-1" d="M231.22,283.32h13.22l15.46,15.58v-15.58h10.7v26.41h-13.24l-15.44-15.59v15.59h-10.7v-26.41Z"/>
    <path class="cls-1" d="M314.9,283.32v7.73h-26.62v2.49h25.16v5.82h-25.16v2.62h26.92v7.75h-37.62v-26.41h37.31Z"/>
  </g>
  <g>
    <path class="cls-1" d="M302.25,276.93c-1.72,0-3.27-.26-4.63-.78s-2.55-1.26-3.56-2.21-1.85-2.08-2.51-3.39-1.16-2.76-1.48-4.34-.52-3.17-.62-4.76-.14-3.19-.14-4.8c0-1.21.02-2.44.06-3.69s.15-2.5.32-3.75.42-2.47.76-3.67.81-2.33,1.41-3.41c1.18-2,2.66-3.47,4.44-4.39s3.76-1.38,5.95-1.38c1.72,0,3.27.26,4.63.78s2.55,1.26,3.57,2.21,1.85,2.08,2.52,3.39,1.16,2.76,1.48,4.34.52,3.17.62,4.76.14,3.19.14,4.8c0,1.21-.02,2.44-.06,3.7s-.15,2.51-.32,3.75-.43,2.46-.77,3.66-.82,2.33-1.42,3.41c-1.17,2-2.65,3.47-4.43,4.39s-3.77,1.38-5.96,1.38ZM282.91,267.57v-9.09h4.2v9.09h-4.2ZM304.5,266.08c.84-.25,1.55-.74,2.11-1.48.32-.48.57-1.05.75-1.72s.32-1.37.42-2.09.16-1.45.19-2.18.04-1.38.04-1.97c0-.55-.01-1.19-.04-1.91s-.09-1.45-.19-2.19-.24-1.45-.42-2.13-.43-1.26-.75-1.74c-.56-.74-1.27-1.23-2.11-1.48s-1.59-.37-2.25-.37-1.39.12-2.25.37c-.84.25-1.55.74-2.11,1.48-.3.47-.55,1.04-.73,1.71s-.32,1.37-.42,2.1-.17,1.46-.2,2.19-.05,1.38-.05,1.97c0,.54.02,1.17.05,1.89s.1,1.45.2,2.2.24,1.46.42,2.14.42,1.26.73,1.73c.56.74,1.27,1.23,2.11,1.48.86.25,1.61.37,2.25.37s1.41-.12,2.25-.37ZM287.11,254.79h-4.2v-9.09h4.2v9.09Z"/>
    <path class="cls-1" d="M310.77,232.47c-.34.34-.67.63-.99.88s-.66.45-1.01.62-.73.28-1.13.36-.85.11-1.33.11v-11.58c.91,0,1.55-.63,1.91-1.9s.54-3.12.54-5.55v-.21c0-1.28-.05-2.34-.14-3.2s-.22-1.54-.37-2.06-.33-.88-.54-1.1-.41-.33-.62-.34c-.36,0-.65.14-.86.42-.22.29-.41.91-.56,1.86-.08.49-.16,1.1-.24,1.83s-.16,1.59-.25,2.58c-.04.4-.07.79-.11,1.17s-.07.76-.11,1.13c-.22,2.59-.45,4.85-.68,6.79s-.52,3.49-.87,4.66c-.59,1.7-1.45,2.92-2.58,3.67-1.16.76-2.44,1.07-3.85.91-1.65-.23-3.01-.96-4.06-2.16-1.07-1.22-1.83-2.61-2.3-4.17-.56-1.78-.93-3.62-1.1-5.51s-.25-3.77-.25-5.63c0-.8.02-1.67.07-2.62s.13-1.92.25-2.92.29-2,.5-3.01.49-1.97.83-2.89.75-1.78,1.23-2.58,1.04-1.48,1.69-2.06c1.25-1.11,2.38-1.72,3.38-1.81v11.58c-.23,0-.43.13-.6.4s-.3.61-.41,1.03-.2.88-.25,1.38-.11.99-.14,1.45-.06.88-.06,1.25,0,.63,0,.78c0,1.76.1,3.13.31,4.11s.54,1.48,1.01,1.48c.25,0,.43-.13.55-.38s.21-.62.25-1.12c.12-1.14.23-2.29.34-3.45s.21-2.34.31-3.55c.13-1.7.27-3.3.43-4.82s.32-2.94.48-4.29c.3-2.46.99-4.31,2.07-5.55s2.65-1.83,4.72-1.77c2.06.13,3.7.84,4.92,2.14,1.22,1.32,2.1,2.81,2.64,4.45.62,1.85,1.02,3.86,1.2,6.03.08,1.1.14,2.15.18,3.16s.06,1.97.06,2.89c0,1.41-.04,2.89-.11,4.45s-.27,3.1-.57,4.62-.75,2.98-1.34,4.36-1.39,2.6-2.41,3.64Z"/>
    <path class="cls-1" d="M290.1,159.96h7.42v13.39h16.84v9.83h-16.84v13.39h-7.42v-36.62Z"/>
    <path class="cls-1" d="M290.1,146.43h16.84v-23.24h7.42v33.06h-24.26v-9.83Z"/>
    <path class="cls-1" d="M290.1,121.2v-9.83h13.34c2.33,0,3.76-1.29,4.27-3.88.19-.97.28-2.43.28-4.38,0-.56,0-1.16-.03-1.78s-.07-1.25-.15-1.86-.21-1.2-.4-1.76-.44-1.05-.77-1.48-.76-.77-1.27-1.02-1.15-.37-1.92-.36h-13.36v-9.83h14.41c5.13,0,8.38,2.71,9.74,8.12.63,2.5.95,5.82.95,9.97,0,1.29-.03,2.63-.09,4.03s-.21,2.76-.44,4.1-.58,2.62-1.04,3.82-1.08,2.26-1.87,3.17-1.78,1.63-2.96,2.16-2.61.8-4.29.8h-14.41Z"/>
    <path class="cls-1" d="M290.1,79.75v-12.15l14.31-14.2h-14.31v-9.83h24.26v12.16l-14.33,14.19h14.33v9.83h-24.26Z"/>
    <path class="cls-1" d="M314.36,37.16h-24.26V13.52c0-.8.06-1.63.19-2.49s.33-1.71.59-2.55.6-1.64,1-2.4.88-1.44,1.43-2.04c2.5-2.7,5.47-4.04,8.91-4.04s6.42,1.35,8.91,4.04c.55.6,1.03,1.28,1.43,2.04s.74,1.56,1,2.4.46,1.69.59,2.55.19,1.69.19,2.49l.09.04-.09,23.61ZM306.94,14.31c0-1.08-.3-2.03-.9-2.85-.8-1.08-2.07-1.62-3.81-1.62s-3.04.54-3.83,1.62c-.59.83-.88,1.78-.88,2.85v13.03h9.42v-13.03Z"/>
  </g>
</svg>