<?xml version="1.0" encoding="UTF-8"?>
<svg id="Lager_1" xmlns="http://www.w3.org/2000/svg" viewBox="0 0 302.16 321.19">
  <defs>
    <style>
      .cls-1 {
        fill: #fff;
      }
    </style>
  </defs>
  <g>
    <path class="cls-1" d="M16.35,314.4c.83,0,1.62-.05,2.36-.14s1.4-.31,1.96-.64,1.01-.83,1.34-1.49.5-1.55.5-2.69v-13.36h9.81v14.41c.01,1.63-.19,3.03-.6,4.19s-.98,2.14-1.72,2.94-1.61,1.42-2.63,1.88-2.12.82-3.31,1.07-2.46.42-3.81.49-2.71.11-4.1.11-2.75-.04-4.09-.11-2.61-.24-3.81-.49-2.3-.61-3.31-1.07-1.89-1.09-2.62-1.88-1.31-1.77-1.72-2.94S-.01,312.13,0,310.5h10.6c0,.91.16,1.63.49,2.14s.76.91,1.29,1.17,1.15.43,1.84.49,1.4.1,2.13.1Z"/>
    <path class="cls-1" d="M43.32,318.62c-3.86-2.27-5.78-5.74-5.78-10.41,0-1.59.21-3.01.62-4.25s.99-2.32,1.72-3.25,1.6-1.73,2.61-2.38,2.1-1.2,3.29-1.62,2.43-.74,3.75-.96,2.66-.35,4.02-.41c1.71-.07,3.15-.11,4.31-.11,1.22,0,2.46.02,3.72.06s2.51.15,3.75.32,2.46.43,3.65.77,2.33.82,3.42,1.42c3.86,2.27,5.78,5.74,5.78,10.41,0,1.58-.21,2.99-.62,4.24s-.99,2.33-1.72,3.26-1.6,1.73-2.61,2.38-2.1,1.2-3.29,1.62-2.43.74-3.75.96-2.66.35-4.02.41c-1.7.07-3.13.11-4.31.11s-2.46-.02-3.72-.06-2.51-.15-3.75-.32-2.46-.43-3.65-.77-2.33-.82-3.42-1.42ZM48.01,308.22c0,.4.03.81.1,1.22s.17.81.32,1.2.34.74.58,1.07.53.62.87.87c.48.32,1.05.57,1.72.76s1.37.33,2.1.42,1.46.16,2.19.18,1.38.04,1.97.04c3.87,0,6.53-.47,8-1.41.69-.52,1.17-1.16,1.44-1.94s.4-1.58.4-2.42c0-.33-.03-.69-.08-1.08s-.15-.79-.29-1.19-.33-.78-.56-1.15-.54-.68-.91-.94c-.47-.32-1.04-.57-1.71-.76s-1.38-.33-2.11-.43-1.46-.16-2.2-.19-1.39-.04-1.98-.04c-3.86,0-6.52.47-7.98,1.42-.35.25-.64.53-.88.86s-.42.69-.57,1.07-.25.79-.32,1.2-.1.82-.1,1.23Z"/>
    <path class="cls-1" d="M83.86,316.76c-.34-.34-.63-.67-.88-.99s-.45-.66-.62-1.01-.28-.73-.36-1.13-.11-.85-.11-1.33h11.58c0,.91.63,1.55,1.9,1.91s3.12.54,5.55.54h.21c1.28,0,2.34-.05,3.2-.14s1.54-.22,2.06-.37.88-.33,1.1-.54.33-.41.34-.62c0-.36-.14-.65-.42-.86-.29-.22-.91-.41-1.86-.56-.49-.08-1.1-.16-1.83-.24s-1.59-.16-2.58-.25c-.4-.04-.79-.07-1.17-.11s-.76-.07-1.13-.11c-2.59-.22-4.85-.45-6.79-.68s-3.49-.52-4.66-.87c-1.7-.59-2.92-1.45-3.67-2.58-.76-1.16-1.07-2.44-.91-3.85.23-1.65.96-3.01,2.16-4.06,1.22-1.07,2.61-1.83,4.17-2.3,1.78-.56,3.62-.93,5.51-1.1s3.77-.25,5.63-.25c.8,0,1.67.02,2.62.07s1.92.13,2.92.25,2,.29,3.01.5,1.97.49,2.89.83,1.78.75,2.58,1.23,1.48,1.04,2.06,1.69c1.11,1.25,1.72,2.38,1.81,3.38h-11.58c0-.23-.13-.43-.4-.6s-.61-.3-1.03-.41-.88-.2-1.38-.25-.99-.11-1.45-.14-.88-.06-1.25-.06-.63,0-.78,0c-1.76,0-3.13.1-4.11.31s-1.48.54-1.48,1.01c0,.25.13.43.38.55s.62.21,1.12.25c1.14.12,2.29.23,3.45.34s2.34.21,3.55.31c1.7.13,3.3.27,4.82.43s2.94.32,4.29.48c2.46.3,4.31.99,5.55,2.07s1.83,2.65,1.77,4.72c-.13,2.06-.84,3.7-2.14,4.92-1.32,1.22-2.81,2.1-4.45,2.64-1.85.62-3.86,1.02-6.03,1.2-1.1.08-2.15.14-3.16.18s-1.97.06-2.89.06c-1.41,0-2.89-.04-4.45-.11s-3.1-.27-4.62-.57-2.98-.75-4.36-1.34-2.6-1.39-3.64-2.41Z"/>
    <path class="cls-1" d="M158.95,296.09v7.1h-24.45v2.29h23.12v5.34h-23.12v2.41h24.73v7.12h-34.56v-24.26h34.28Z"/>
    <path class="cls-1" d="M199.96,296.09v7.42h-24.73v4.24h23.12v7.12h-23.12v5.48h-9.83v-24.26h34.56Z"/>
    <path class="cls-1" d="M205.17,296.09h9.83v24.26h-9.83v-24.26Z"/>
    <path class="cls-1" d="M223.21,296.09h12.15l14.2,14.31v-14.31h9.83v24.26h-12.16l-14.19-14.33v14.33h-9.83v-24.26Z"/>
    <path class="cls-1" d="M301.88,296.09v7.1h-24.45v2.29h23.12v5.34h-23.12v2.41h24.73v7.12h-34.56v-24.26h34.28Z"/>
  </g>
  <g>
    <path class="cls-1" d="M289.21,287.73c-1.72,0-3.27-.26-4.63-.78s-2.55-1.26-3.56-2.21-1.85-2.08-2.51-3.39-1.16-2.76-1.48-4.34-.52-3.17-.62-4.76-.14-3.19-.14-4.8c0-1.21.02-2.44.06-3.69s.15-2.5.32-3.75.42-2.47.76-3.67.81-2.33,1.41-3.41c1.18-2,2.66-3.47,4.44-4.39s3.76-1.38,5.95-1.38c1.72,0,3.27.26,4.63.78s2.55,1.26,3.57,2.21,1.85,2.08,2.52,3.39,1.16,2.76,1.48,4.34.52,3.17.62,4.76.14,3.19.14,4.8c0,1.21-.02,2.44-.06,3.7s-.15,2.51-.32,3.75-.43,2.46-.77,3.66-.82,2.33-1.42,3.41c-1.17,2-2.65,3.47-4.43,4.39s-3.77,1.38-5.96,1.38ZM269.87,278.37v-9.09h4.2v9.09h-4.2ZM291.46,276.88c.84-.25,1.55-.74,2.11-1.48.32-.48.57-1.05.75-1.72s.32-1.37.42-2.09.16-1.45.19-2.18.04-1.38.04-1.97c0-.55-.01-1.19-.04-1.91s-.09-1.45-.19-2.19-.24-1.45-.42-2.13-.43-1.26-.75-1.74c-.56-.74-1.27-1.23-2.11-1.48s-1.59-.37-2.25-.37-1.39.12-2.25.37c-.84.25-1.55.74-2.11,1.48-.3.47-.55,1.04-.73,1.71s-.32,1.37-.42,2.1-.17,1.46-.2,2.19-.05,1.38-.05,1.97c0,.54.02,1.17.05,1.89s.1,1.45.2,2.2.24,1.46.42,2.14.42,1.26.73,1.73c.56.74,1.27,1.23,2.11,1.48.86.25,1.61.37,2.25.37s1.41-.12,2.25-.37ZM274.07,265.59h-4.2v-9.09h4.2v9.09Z"/>
    <path class="cls-1" d="M297.73,241.47c-.34.34-.67.63-.99.88s-.66.45-1.01.62-.73.28-1.13.36-.85.11-1.33.11v-11.58c.91,0,1.55-.63,1.91-1.9s.54-3.12.54-5.55v-.21c0-1.28-.05-2.34-.14-3.2s-.22-1.54-.37-2.06-.33-.88-.54-1.1-.41-.33-.62-.34c-.36,0-.65.14-.86.42-.22.29-.41.91-.56,1.86-.08.49-.16,1.1-.24,1.83s-.16,1.59-.25,2.58c-.04.4-.07.79-.11,1.17s-.07.76-.11,1.13c-.22,2.59-.45,4.85-.68,6.79s-.52,3.49-.87,4.66c-.59,1.7-1.45,2.92-2.58,3.67-1.16.76-2.44,1.07-3.85.91-1.65-.23-3.01-.96-4.06-2.16-1.07-1.22-1.83-2.61-2.3-4.17-.56-1.78-.93-3.62-1.1-5.51s-.25-3.77-.25-5.63c0-.8.02-1.67.07-2.62s.13-1.92.25-2.92.29-2,.5-3.01.49-1.97.83-2.89.75-1.78,1.23-2.58,1.04-1.48,1.69-2.06c1.25-1.11,2.38-1.72,3.38-1.81v11.58c-.23,0-.43.13-.6.4s-.3.61-.41,1.03-.2.88-.25,1.38-.11.99-.14,1.45-.06.88-.06,1.25,0,.63,0,.78c0,1.76.1,3.13.31,4.11s.54,1.48,1.01,1.48c.25,0,.43-.13.55-.38s.21-.62.25-1.12c.12-1.14.23-2.29.34-3.45s.21-2.34.31-3.55c.13-1.7.27-3.3.43-4.82s.32-2.94.48-4.29c.3-2.46.99-4.31,2.07-5.55s2.65-1.83,4.72-1.77c2.06.13,3.7.84,4.92,2.14,1.22,1.32,2.1,2.81,2.64,4.45.62,1.85,1.02,3.86,1.2,6.03.08,1.1.14,2.15.18,3.16s.06,1.97.06,2.89c0,1.41-.04,2.89-.11,4.45s-.27,3.1-.57,4.62-.75,2.98-1.34,4.36-1.39,2.6-2.41,3.64Z"/>
    <path class="cls-1" d="M277.06,167.16h7.42v13.39h16.84v9.83h-16.84v13.39h-7.42v-36.62Z"/>
    <path class="cls-1" d="M277.06,151.83h16.84v-23.24h7.42v33.06h-24.26v-9.83Z"/>
    <path class="cls-1" d="M277.06,124.8v-9.83h13.34c2.33,0,3.76-1.29,4.27-3.88.19-.97.28-2.43.28-4.38,0-.56,0-1.16-.03-1.78s-.07-1.25-.15-1.86-.21-1.2-.4-1.76-.44-1.05-.77-1.48-.76-.77-1.27-1.02-1.15-.37-1.92-.36h-13.36v-9.83h14.41c5.13,0,8.38,2.71,9.74,8.12.63,2.5.95,5.82.95,9.97,0,1.29-.03,2.63-.09,4.03s-.21,2.76-.44,4.1-.58,2.62-1.04,3.82-1.08,2.26-1.87,3.17-1.78,1.63-2.96,2.16-2.61.8-4.29.8h-14.41Z"/>
    <path class="cls-1" d="M277.06,81.55v-12.15l14.31-14.2h-14.31v-9.83h24.26v12.16l-14.33,14.19h14.33v9.83h-24.26Z"/>
    <path class="cls-1" d="M301.32,37.16h-24.26V13.52c0-.8.06-1.63.19-2.49s.33-1.71.59-2.55.6-1.64,1-2.4.88-1.44,1.43-2.04c2.5-2.7,5.47-4.04,8.91-4.04s6.42,1.35,8.91,4.04c.55.6,1.03,1.28,1.43,2.04s.74,1.56,1,2.4.46,1.69.59,2.55.19,1.69.19,2.49l.09.04-.09,23.61ZM293.9,14.31c0-1.08-.3-2.03-.9-2.85-.8-1.08-2.07-1.62-3.81-1.62s-3.04.54-3.83,1.62c-.59.83-.88,1.78-.88,2.85v13.03h9.42v-13.03Z"/>
  </g>
</svg>